<?xml version="1.0" encoding="UTF-8" standalone="no"?>
<!DOCTYPE svg PUBLIC "-//W3C//DTD SVG 1.1//EN" "http://www.w3.org/Graphics/SVG/1.1/DTD/svg11.dtd">
<svg width="100%" height="100%" viewBox="0 0 400 200" version="1.1" xmlns="http://www.w3.org/2000/svg" xmlns:xlink="http://www.w3.org/1999/xlink" xml:space="preserve" xmlns:serif="http://www.serif.com/" style="fill-rule:evenodd;clip-rule:evenodd;stroke-linejoin:round;stroke-miterlimit:2;">
    <g transform="matrix(0.3125,0,0,0.25,-2.93099e-14,-2.84217e-14)">
        <rect x="0" y="0" width="1280" height="800" style="fill:rgb(255,235,59);"/>
    </g>
    <g transform="matrix(1.8044,0,0,1.8044,186.014,72.934)">
        <g id="angle-double-right">
            <path d="M9.297,15C9.297,15.125 9.234,15.266 9.141,15.359L1.86,22.64C1.766,22.734 1.626,22.796 1.501,22.796C1.376,22.796 1.235,22.733 1.142,22.64L0.361,21.859C0.267,21.765 0.205,21.625 0.205,21.5C0.205,21.375 0.268,21.234 0.361,21.141L6.502,15L0.361,8.859C0.267,8.765 0.205,8.625 0.205,8.5C0.205,8.375 0.268,8.234 0.361,8.141L1.142,7.36C1.236,7.266 1.376,7.204 1.501,7.204C1.626,7.204 1.767,7.267 1.86,7.36L9.141,14.641C9.235,14.735 9.297,14.875 9.297,15ZM15.297,15C15.297,15.125 15.234,15.266 15.141,15.359L7.86,22.64C7.766,22.734 7.626,22.796 7.501,22.796C7.376,22.796 7.235,22.733 7.142,22.64L6.361,21.859C6.267,21.765 6.205,21.625 6.205,21.5C6.205,21.375 6.268,21.234 6.361,21.141L12.502,15L6.361,8.859C6.267,8.765 6.205,8.625 6.205,8.5C6.205,8.375 6.268,8.234 6.361,8.141L7.142,7.36C7.236,7.266 7.376,7.204 7.501,7.204C7.626,7.204 7.767,7.267 7.86,7.36L15.141,14.641C15.235,14.735 15.297,14.875 15.297,15Z" style="fill:white;fill-rule:nonzero;"/>
        </g>
    </g>
    <g id="document-file-pdf" transform="matrix(1.97844e-16,3.23103,-3.23103,1.97844e-16,165.892,45.0725)">
        <g transform="matrix(4.04899e-17,-0.66125,0.66125,4.04899e-17,1.51625,33.7865)">
            <path d="M21,13L21,10L15,3L4.003,3C2.897,3 2,3.898 2,5.007L2,27.993C2,29.101 2.891,30 3.997,30L19.003,30C20.106,30 21,29.102 21,28.009L21,26L28.993,26C30.654,26 32,24.658 32,23.001L32,15.999C32,14.343 30.664,13 28.993,13L21,13ZM20,26L20,28.007C20,28.555 19.552,29 19,29L4,29C3.455,29 3,28.554 3,28.005L3,4.995C3,4.455 3.446,4 3.996,4L14,4L14,8.994C14,10.113 14.894,11 15.998,11L20,11L20,13L12.007,13C10.346,13 9,14.342 9,15.999L9,23.001C9,24.657 10.336,26 12.007,26L20,26ZM15,4.5L15,8.991C15,9.548 15.451,10 15.997,10L19.7,10L15,4.5ZM11.995,14C10.893,14 10,14.9 10,15.992L10,23.008C10,24.108 10.902,25 11.995,25L29.005,25C30.107,25 31,24.1 31,23.008L31,15.992C31,14.892 30.098,14 29.005,14L11.995,14ZM25,19L25,17L29,17L29,16L24,16L24,23L25,23L25,20L28,20L28,19L25,19ZM12,16L12,23L13,23L13,20L14.995,20C16.102,20 17,19.112 17,18C17,16.895 16.106,16 14.995,16L12,16ZM13,17L13,19L15.001,19C15.553,19 16,18.556 16,18C16,17.448 15.557,17 15.001,17L13,17ZM18,16L18,23L20.995,23C22.102,23 23,22.113 23,20.994L23,18.006C23,16.898 22.106,16 20.995,16L18,16ZM19,17L19,22L21.001,22C21.553,22 22,21.556 22,21L22,18C22,17.448 21.557,17 21.001,17L19,17Z" style="fill:white;"/>
        </g>
        <g id="document-file-pdf1" serif:id="document-file-pdf" transform="matrix(4.049e-17,-0.66125,0.66125,4.049e-17,10.6625,23.624)">
            <path d="M21,26L21,28.003C21,29.109 20.106,30 19.003,30L3.997,30C2.891,30 2,29.101 2,27.993L2,5.007C2,3.898 2.899,3 4.009,3L14,3L14,9.002C14,10.113 14.898,11 16.006,11L21,11L21,13L12.007,13C10.346,13 9,14.342 9,15.999L9,23.001C9,24.657 10.336,26 12.007,26L21,26ZM15,3L15,8.997C15,9.551 15.451,10 15.991,10L21,10L15,3ZM11.995,14C10.893,14 10,14.9 10,15.992L10,23.008C10,24.108 10.902,25 11.995,25L29.005,25C30.107,25 31,24.1 31,23.008L31,15.992C31,14.892 30.098,14 29.005,14L11.995,14ZM25,19L25,17L29,17L29,16L24,16L24,23L25,23L25,20L28,20L28,19L25,19ZM12,16L12,23L13,23L13,20L14.995,20C16.102,20 17,19.112 17,18C17,16.895 16.106,16 14.995,16L12,16ZM13,17L13,19L15.001,19C15.553,19 16,18.556 16,18C16,17.448 15.557,17 15.001,17L13,17ZM18,16L18,23L20.995,23C22.102,23 23,22.113 23,20.994L23,18.006C23,16.898 22.106,16 20.995,16L18,16ZM19,17L19,22L21.001,22C21.553,22 22,21.556 22,21L22,18C22,17.448 21.557,17 21.001,17L19,17Z" style="fill:rgb(255,235,59);"/>
        </g>
        <g transform="matrix(4.04899e-17,-0.66125,0.66125,4.04899e-17,10.6625,23.624)">
            <path d="M21,13L21,10L15,3L4.003,3C2.897,3 2,3.898 2,5.007L2,27.993C2,29.101 2.891,30 3.997,30L19.003,30C20.106,30 21,29.102 21,28.009L21,26L28.993,26C30.654,26 32,24.658 32,23.001L32,15.999C32,14.343 30.664,13 28.993,13L21,13ZM20,26L20,28.007C20,28.555 19.552,29 19,29L4,29C3.455,29 3,28.554 3,28.005L3,4.995C3,4.455 3.446,4 3.996,4L14,4L14,8.994C14,10.113 14.894,11 15.998,11L20,11L20,13L12.007,13C10.346,13 9,14.342 9,15.999L9,23.001C9,24.657 10.336,26 12.007,26L20,26ZM15,4.5L15,8.991C15,9.548 15.451,10 15.997,10L19.7,10L15,4.5ZM11.995,14C10.893,14 10,14.9 10,15.992L10,23.008C10,24.108 10.902,25 11.995,25L29.005,25C30.107,25 31,24.1 31,23.008L31,15.992C31,14.892 30.098,14 29.005,14L11.995,14ZM25,19L25,17L29,17L29,16L24,16L24,23L25,23L25,20L28,20L28,19L25,19ZM12,16L12,23L13,23L13,20L14.995,20C16.102,20 17,19.112 17,18C17,16.895 16.106,16 14.995,16L12,16ZM13,17L13,19L15.001,19C15.553,19 16,18.556 16,18C16,17.448 15.557,17 15.001,17L13,17ZM18,16L18,23L20.995,23C22.102,23 23,22.113 23,20.994L23,18.006C23,16.898 22.106,16 20.995,16L18,16ZM19,17L19,22L21.001,22C21.553,22 22,21.556 22,21L22,18C22,17.448 21.557,17 21.001,17L19,17Z" style="fill:white;"/>
        </g>
        <g transform="matrix(6.12323e-17,-1,1,6.12323e-17,0.499997,-21.5767)">
            <path d="M21,13L21,10L15,3L4.003,3C2.897,3 2,3.898 2,5.007L2,27.993C2,29.101 2.891,30 3.997,30L19.003,30C20.106,30 21,29.102 21,28.009L21,26L28.993,26C30.654,26 32,24.658 32,23.001L32,15.999C32,14.343 30.664,13 28.993,13L21,13ZM20,26L20,28.007C20,28.555 19.552,29 19,29L4,29C3.455,29 3,28.554 3,28.005L3,4.995C3,4.455 3.446,4 3.996,4L14,4L14,8.994C14,10.113 14.894,11 15.998,11L20,11L20,13L12.007,13C10.346,13 9,14.342 9,15.999L9,23.001C9,24.657 10.336,26 12.007,26L20,26ZM15,4.5L15,8.991C15,9.548 15.451,10 15.997,10L19.7,10L15,4.5ZM11.995,14C10.893,14 10,14.9 10,15.992L10,23.008C10,24.108 10.902,25 11.995,25L29.005,25C30.107,25 31,24.1 31,23.008L31,15.992C31,14.892 30.098,14 29.005,14L11.995,14ZM25,19L25,17L29,17L29,16L24,16L24,23L25,23L25,20L28,20L28,19L25,19ZM12,16L12,23L13,23L13,20L14.995,20C16.102,20 17,19.112 17,18C17,16.895 16.106,16 14.995,16L12,16ZM13,17L13,19L15.001,19C15.553,19 16,18.556 16,18C16,17.448 15.557,17 15.001,17L13,17ZM18,16L18,23L20.995,23C22.102,23 23,22.113 23,20.994L23,18.006C23,16.898 22.106,16 20.995,16L18,16ZM19,17L19,22L21.001,22C21.553,22 22,21.556 22,21L22,18C22,17.448 21.557,17 21.001,17L19,17Z" style="fill:white;"/>
        </g>
    </g>
</svg>
